<svg xmlns="http://www.w3.org/2000/svg" xmlns:xlink="http://www.w3.org/1999/xlink" width="80" zoomAndPan="magnify" viewBox="0 0 60 30.000001" height="40" preserveAspectRatio="xMidYMid meet" version="1.2"><defs><clipPath id="640867f662"><path d="M 0.96875 0 L 59.03125 0 L 59.03125 29.03125 L 0.96875 29.03125 Z M 0.96875 0 "/></clipPath><clipPath id="9a9d1a2593"><path d="M 3.03125 7.234375 L 56.738281 7.234375 L 56.738281 21.75 L 3.03125 21.75 Z M 3.03125 7.234375 "/></clipPath></defs><g id="d1268ce33c"><g clip-rule="nonzero" clip-path="url(#640867f662)"><path style=" stroke:none;fill-rule:nonzero;fill:#ffffff;fill-opacity:1;" d="M 0.96875 0 L 59.03125 0 L 59.03125 29.03125 L 0.96875 29.03125 Z M 0.96875 0 "/><path style=" stroke:none;fill-rule:nonzero;fill:#ffffff;fill-opacity:1;" d="M 0.96875 0 L 59.03125 0 L 59.03125 29.03125 L 0.96875 29.03125 Z M 0.96875 0 "/></g><g clip-rule="nonzero" clip-path="url(#9a9d1a2593)"><path style=" stroke:none;fill-rule:nonzero;fill:#ffffff;fill-opacity:1;" d="M 53.84375 14.144531 L 56.710938 21.75 C 55.871094 21.636719 55.011719 21.46875 54.15625 21.335938 L 52.542969 17.132812 L 50.875 20.992188 C 50.070312 20.859375 49.261719 20.808594 48.4375 20.710938 L 51.355469 14.0625 L 48.71875 7.234375 L 51.171875 7.234375 L 52.65625 11.042969 L 54.238281 7.234375 L 56.710938 7.234375 Z M 46.789062 7.234375 L 44.566406 7.234375 L 44.566406 20.414062 C 45.289062 20.464844 46.050781 20.496094 46.789062 20.578125 Z M 42.65625 20.265625 C 40.628906 20.132812 38.601562 20 36.542969 19.96875 L 36.542969 7.234375 L 38.796875 7.234375 L 38.796875 17.824219 C 40.101562 17.855469 41.402344 17.957031 42.65625 18.023438 Z M 34.117188 12.398438 L 34.117188 14.65625 L 31.019531 14.65625 L 31.019531 19.820312 L 28.78125 19.820312 L 28.78125 7.234375 L 35.125 7.234375 L 35.125 9.492188 L 31.019531 9.492188 L 31.019531 12.378906 Z M 24.972656 9.492188 L 24.972656 19.9375 C 24.214844 19.9375 23.441406 19.9375 22.699219 19.96875 L 22.699219 9.492188 L 20.359375 9.492188 L 20.359375 7.234375 L 27.332031 7.234375 L 27.332031 9.492188 Z M 17.921875 14.773438 C 16.933594 14.773438 15.746094 14.773438 14.90625 14.820312 L 14.90625 18.1875 C 16.242188 18.089844 17.558594 17.988281 18.910156 17.941406 L 18.910156 20.117188 L 12.648438 20.613281 L 12.648438 7.234375 L 18.910156 7.234375 L 18.910156 9.492188 L 14.90625 9.492188 L 14.90625 12.546875 C 15.78125 12.546875 17.128906 12.496094 17.921875 12.496094 Z M 5.367188 13.503906 L 5.367188 21.421875 C 4.558594 21.519531 3.832031 21.636719 3.058594 21.75 L 3.058594 7.234375 L 5.21875 7.234375 L 8.167969 15.480469 L 8.167969 7.234375 L 10.441406 7.234375 L 10.441406 20.808594 C 9.632812 20.941406 8.824219 20.992188 7.96875 21.105469 Z M 5.367188 13.503906 "/></g></g></svg>